<?xml version="1.0" ?><svg id="Layer_1" style="enable-background:new 0 0 391 467.965;" version="1.1" viewBox="0 0 391 467.965" xml:space="preserve" xmlns="http://www.w3.org/2000/svg" xmlns:xlink="http://www.w3.org/1999/xlink"><g><path d="M151.757,297.13l-1.251,8.802h18.763c3.146,0,5.861-1.821,7.168-4.464l-18.119-2.014   C155.938,299.189,153.704,298.385,151.757,297.13z"/><path d="M125.314,213.766h-14.046c-4.418,0-8,3.581-8,8v76.166c0,4.419,3.582,8,8,8h8.198l5.848-41.141V213.766z"/><path d="M159.273,198.189h11.956l9.958-6.357c-0.244-2.563-1.699-4.767-3.784-6.047C173.606,192.3,167.012,196.991,159.273,198.189   z"/><path d="M99.31,192.599v9.499c0,4.419,3.582,8,8,8h15.538l-19.779-24.273C100.813,187.238,99.31,189.74,99.31,192.599z"/><polygon points="375,449.965 317,436.965 287,399.965 248.5,355.465 208,358.965 170,383.965 118,399.965 81,430.965 17,447.965    0,467.965 391,467.965  "/><path d="M182.405,241.714c-4.908-5.935-7.977-14.432-10.183-22.159c-2.405-8.649-3.499-16.367-3.76-18.368h-21.902   c-0.318,3.131-2.221,20.828-6.909,34.095c-1.745,4.867-3.809,9.178-6.683,12.129c-1.309,1.334-2.869,2.4-4.655,2.919v14.681   l-16.104,113.309c-0.961,6.763,3.742,13.02,10.5,13.98c6.761,0.961,13.021-3.738,13.982-10.5l12.935-91.002   c1.918,3.057,5.155,5.246,9.021,5.676l39.434,4.382l18.177,41.978c2.001,4.623,6.512,7.385,11.248,7.386   c1.625,0,3.275-0.325,4.861-1.012c6.209-2.687,9.064-9.9,6.374-16.109l-21-48.5c-1.738-4.017-5.538-6.827-9.889-7.308   l-25.446-2.828V241.714z"/><path d="M77.278,136.762c-3.425,2.791-3.938,7.831-1.147,11.255l0.204,0.251l-1.717,2.642L1.692,263.078l5.028,3.272   l71.877-110.557l1.718-2.642l47.998,58.903v32.774c0.884-0.626,1.825-1.611,2.771-3.036c1.68-2.506,3.226-6.129,4.522-10.166   c2.609-8.083,4.275-17.818,5.168-24.264c0.392-2.831,0.638-5.011,0.761-6.177h-1.439l-50.623-62.121l1.718-2.642l40.85-62.832   c13.656-1.194,30.901-5.646,39.652,16.854c9.334,24,53.667,34.666,53.667,34.666c7.333-2,38.667-26.666,44-57.333   c-38,6.667-40.333-14.333-47.333-27.333c-6.296-11.693-43.868-23.923-51.361-26.265l7.093-10.909L172.729,0L86.415,132.764   l-1.674,2.574C82.26,134.557,79.446,134.995,77.278,136.762z"/><path d="M173.398,200.363c0.082,0.645,0.328,2.49,0.797,5.161c0.586,3.339,1.508,7.892,2.844,12.692   c1.316,4.861,3.14,9.959,5.366,14.288v-18.909l77.925-49.742c3.723-2.378,4.817-7.322,2.438-11.048   c-2.378-3.723-7.325-4.817-11.048-2.439L173.398,200.363z"/><path d="M155.359,195.488c12.428,0,22.5-10.073,22.5-22.5s-10.072-22.5-22.5-22.5c-12.426,0-22.5,10.073-22.5,22.5   S142.934,195.488,155.359,195.488z M149.64,185.557c0,0,14.108-0.23,21.47-7.361C171.109,178.195,166.126,198.131,149.64,185.557z"/><path d="M288.243,218.118c1.378-2.021,2.185-4.464,2.185-7.097c0-6.97-5.648-12.619-12.619-12.619   c-3.392,0-6.465,1.346-8.732,3.523c-1.71,1.642-2.951,3.758-3.524,6.139c-0.324-0.043-0.652-0.073-0.989-0.073   c-4.094,0-7.41,3.318-7.41,7.412c0,4.094,3.316,7.411,7.41,7.411c2.011,0,3.832-0.804,5.167-2.104   c2.189,1.827,5.005,2.929,8.079,2.929c2.976,0,5.705-1.036,7.862-2.758c1.855,1.707,4.323,2.758,7.042,2.758   c5.754,0,10.418-4.662,10.418-10.414c0-5.753-4.664-10.416-10.418-10.416c-0.718,0-1.418,0.073-2.095,0.211   c0.966,1.784,1.515,3.827,1.515,5.998C292.134,212.598,290.637,215.822,288.243,218.118z"/><path d="M350.124,161.803c1.89,2.184,4.675,3.571,7.789,3.571c5.69,0,10.303-4.611,10.303-10.303   c0-5.691-4.613-10.303-10.303-10.303c-0.069,0-0.137,0.009-0.206,0.011c0.068,0.647,0.106,1.304,0.106,1.97   C357.813,152.944,354.776,158.416,350.124,161.803z"/><path d="M356.229,146.749c0-10.017-7.917-18.166-17.834-18.585c-0.265-0.011-0.525-0.04-0.793-0.04   c-7.301,0-13.604,4.212-16.657,10.329c4.093,0.156,7.683,2.268,9.844,5.442c-2.242-2.154-5.282-3.486-8.638-3.486   c-5.892,0-10.817,4.086-12.13,9.574c0.493-0.105,1.004-0.162,1.528-0.162c4.049,0,7.331,3.281,7.331,7.33   c0,0.251-0.013,0.499-0.037,0.743c-0.373-3.699-3.496-6.587-7.294-6.587c-3.798,0-6.92,2.888-7.293,6.587   c-0.025,0.244-0.037,0.492-0.037,0.743c0,4.049,3.281,7.332,7.33,7.332c1.919,0,3.659-0.743,4.967-1.95   c1.694,0.859,3.604,1.354,5.635,1.354c2.555,0,4.928-0.77,6.906-2.088c2.561,1.326,5.462,2.088,8.545,2.088   c0.267,0,0.528-0.029,0.793-0.04C348.313,164.916,356.229,156.769,356.229,146.749z"/><path d="M306.757,311.762c0,10.77,8.73,19.5,19.5,19.5c10.77,0,19.5-8.73,19.5-19.5c0-10.77-8.73-19.5-19.5-19.5   C315.487,292.262,306.757,300.992,306.757,311.762z M340.507,311.762c0,7.87-6.38,14.25-14.25,14.25   c-7.87,0-14.25-6.38-14.25-14.25c0-7.87,6.38-14.25,14.25-14.25C334.127,297.512,340.507,303.892,340.507,311.762z"/></g></svg>