<?xml version="1.0" ?><svg height="512" id="svg2" version="1.1" width="512" xmlns="http://www.w3.org/2000/svg" xmlns:cc="http://creativecommons.org/ns#" xmlns:dc="http://purl.org/dc/elements/1.1/" xmlns:inkscape="http://www.inkscape.org/namespaces/inkscape" xmlns:rdf="http://www.w3.org/1999/02/22-rdf-syntax-ns#" xmlns:sodipodi="http://sodipodi.sourceforge.net/DTD/sodipodi-0.dtd" xmlns:svg="http://www.w3.org/2000/svg"><defs id="defs4"/><g id="layer1" transform="translate(0,-540.36218)"><g id="g3948" transform="translate(11.106296,606.97158)"><path d="m 213.90945,0.03543307 c -6.59055,0 -12.01181,5.24409443 -12.01181,11.83464593 l 0,5.102362 c 0,6.590551 5.42126,12.011811 12.01181,12.011811 l 20.69292,0 0,9.81496 -0.8504,0 c -5.13779,0 -9.17716,3.897638 -9.85039,8.822835 l -15.05905,65.728343 6.09448,0 c 7.01575,-6.55511 16.44095,-10.52362 26.75197,-10.52362 l 1.20473,0 1.16929,0 c 10.34646,0 19.77165,3.96851 26.7874,10.52362 l 6.09449,0 -6.44882,-28.452753 -8.64567,-37.27559 c -0.67323,-4.925197 -4.7126,-8.822835 -9.81496,-8.822835 l -0.85039,0 0,-9.81496 20.83464,0 c 6.59055,0 11.87008,-5.42126 11.87008,-12.011811 l 0,-5.102362 c 0,-6.5905515 -5.27953,-11.83464593 -11.87008,-11.83464593 l -58.11024,0 z M 123.30709,50.846456 c -7.72441,0 -13.88976,6.165355 -13.88976,13.889764 l 0,23.350394 c 0,7.724409 6.16535,14.066926 13.88976,14.066926 l 4.0748,0 0,22.7126 -48.791337,0 c -4.854331,0 -8.822835,3.93307 -8.822835,8.7874 l 0,32.17323 12.366142,0 c 17.043308,0 30.82677,13.78347 30.82677,30.82677 l 0,11.37402 62.00788,0 21.15354,12.50787 c 0.14173,0.88583 2.05512,8.25591 5.59843,22.7126 l -98.75197,0 0,-47.26772 c 0,-11.58661 -9.177169,-20.97637 -20.657484,-20.97637 l -61.653545,0 C 9.2125987,175.00394 0,184.3937 0,195.98031 l 0,148.21654 c 0,11.62205 9.2125987,20.83464 20.657481,20.83464 l 61.653545,0 c 11.480315,0 20.657484,-9.21259 20.657484,-20.83464 l 0,-14.91732 -62.149611,0 0,-37.59449 c 0,-15.34252 12.259843,-27.95669 27.602363,-27.95669 l 33.696848,0 0.8504,0 0,-0.14174 103.67716,0 c 2.09056,8.85827 5.63386,17.32677 8.46851,29.62205 l -84.01181,0.5315 -14.91733,-12.54331 c -5.24409,-4.42913 -10.55905,-9.3189 -17.929132,-9.3189 l -26.610237,0 c -12.188976,0 -22.003937,10.02756 -22.003937,22.1811 l 0,26.43307 c 57.224406,-0.17716 112.216536,-0.85039 169.866146,-0.85039 0.95669,4.11024 1.34646,5.45669 2.37402,9.99213 l 0,0.31889 0.17716,0.5315 c 1.20473,4.8189 5.59843,8.4685 10.84252,8.4685 l 9.99213,0 9.99212,0 c 5.20867,0 9.60237,-3.6496 10.84252,-8.4685 l 0.17717,-0.5315 0,-0.31889 c 1.02756,-4.53544 1.41732,-5.88189 2.33858,-9.99213 57.68504,-0.35433 112.64174,0.85039 169.90158,0.85039 l 0,-26.43307 c 0,-12.15354 -9.85039,-22.1811 -22.00394,-22.1811 l -26.61023,0 c -7.37008,0 -12.68504,4.88977 -17.96457,9.3189 l -14.88189,12.54331 -84.01181,-0.5315 c 2.83464,-12.29528 6.34252,-20.76378 8.4685,-29.62205 l 103.64173,0 0,0.14174 0.8504,0 33.69685,0 c 15.34252,0 27.6378,12.61417 27.6378,27.95669 l 0,37.77165 -62.18505,0 0,14.74016 c 0,11.62205 9.2126,20.83464 20.65749,20.83464 l 61.65354,0 c 11.48032,0 20.69291,-9.21259 20.69291,-20.83464 l 0,-148.21654 c 0,-11.58661 -9.21259,-20.97637 -20.69291,-20.97637 l -61.65354,0 c -11.44489,0 -20.65749,9.38976 -20.65749,20.97637 l 0,47.26772 -98.75197,0 c 3.57874,-14.45669 5.49213,-21.82677 5.59843,-22.7126 l 21.18898,-12.50787 61.97244,0 0,-11.37402 c 0,-17.0433 13.78346,-30.82677 30.82677,-30.82677 l 12.36614,0 0,-32.17323 c 0,-4.85433 -3.93307,-8.7874 -8.7874,-8.7874 l -48.79134,0 0,-22.7126 4.0748,0 c 7.72441,0 13.88977,-6.342517 13.88977,-14.066926 l 0,-23.350394 c 0,-7.724409 -6.16536,-13.889764 -13.88977,-13.889764 l -88.93701,0 11.87008,51.307084 50.63386,0 0,24.55512 c -2.65748,1.45276 -4.57086,3.72047 -8.1496,7.29921 l -25.90158,27.77953 c -1.13386,1.13386 -2.01968,2.01969 -2.69291,2.87008 l -0.70866,0 -55.52363,0 -0.17716,0 -0.17717,0 -55.55905,0 -0.67323,0 c -0.67323,-0.85039 -1.55906,-1.73622 -2.69292,-2.87008 l -25.93701,-27.77953 c -3.5433,-3.57874 -5.45669,-5.84645 -8.11417,-7.29921 l 0,-24.55512 50.63386,0 11.87008,-51.307084 -88.93701,0 z M 30.826772,83.515748 C 13.783465,83.515748 0,97.299212 0,114.34252 l 0,54.88583 57.755907,-3.72048 0,-39.29527 c 0,-5.81103 4.712599,-10.48819 10.488189,-10.48819 l 39.153544,0 0,-1.38189 c 0,-17.043308 -13.783464,-30.826772 -30.826772,-30.826772 l -45.744096,0 z m 378.389778,0 c -17.04331,0 -30.82678,13.783464 -30.82678,30.826772 l 0,1.38189 39.11812,0 c 5.81102,0 10.52362,4.67716 10.52362,10.48819 l 0,39.29527 57.7559,0 0,-51.16535 c 0,-17.043308 -13.78346,-30.826772 -30.82677,-30.826772 l -45.74409,0 z M 242.89371,112.64173 c -14.81103,0 -27,11.40945 -28.13386,25.93701 -0.0354,0.70866 -0.14173,1.45276 -0.14173,2.19685 0,0.95669 0.0709,1.94882 0.14173,2.87008 l 0,11.87008 28.13386,0 28.09842,0 0,-11.87008 c 0.1063,-0.92126 0.17717,-1.91339 0.17717,-2.87008 0,-0.74409 -0.1063,-1.48819 -0.17717,-2.19685 -1.09842,-14.52756 -13.2874,-25.93701 -28.09842,-25.93701 z" id="path3950" style="fill:#000000;fill-opacity:1;fill-rule:nonzero;stroke:none"/></g></g></svg>