<?xml version="1.0" ?><!DOCTYPE svg  PUBLIC '-//W3C//DTD SVG 1.1//EN'  'http://www.w3.org/Graphics/SVG/1.1/DTD/svg11.dtd'><svg id="Calque_1" style="enable-background:new 0 0 100 100;" version="1.1" viewBox="0 0 100 100" xml:space="preserve" xmlns="http://www.w3.org/2000/svg" xmlns:xlink="http://www.w3.org/1999/xlink"><g><g><path d="M56.6,33.3c-1.3-1.7-3.8-2.1-5.5-0.8c-2.7,2-5.6,4-7.4,5.1c-1.2-1.9-3.1-5.8-4.5-9.6c-0.3-0.8-0.9-1.5-1.6-1.9     c-0.4-0.3-0.8-0.6-1.4-0.8c-2.4-0.7-4.7-1.4-6.9-2c-2.1-0.6-3.8-1-5.9,0.6c-3.3,2.5-7,18.5-6.1,29.1c0,0.3,0.1,0.7,0.1,1     c0,1.8,0.6,3.7,1,5.3c0.2,0.6,0.4,1.2,0.4,1.6c0.7,3.2,1.1,9.4,0.7,11.1c-0.7,2.7-3.9,19.6-4.1,20.3c-0.5,2.4,1.1,4.7,3.5,5.2     c0.3,0.1,0.6,0.1,0.8,0.1c2.1,0,3.9-1.5,4.3-3.6c0.9-4.8,3.5-17.8,4-19.9c0.6-2.4,0.5-6.6,0.1-10.2c1.8,3.4,3.3,6.4,3.6,7.4     c0.3,1.8,1,12.5,1.5,22.1c0.1,2.4,2.2,4.3,4.6,4.2c2.4-0.1,4.3-2.2,4.2-4.6c-0.3-6.3-1.1-21.3-1.7-23.7     c-0.5-2.2-4.1-8.9-6.6-13.6l3.2-14.2c1.6,2.6,3.5,4.6,6,4.6c0.4,0,0.7,0,1.1-0.1c3-0.7,8.7-4.8,11.8-7.1     C57.6,37.5,57.9,35,56.6,33.3z"/><path d="M84.7,3.6c0-0.6-0.5-1.1-1.1-1.1H56.5c-0.6,0-1.1,0.5-1.1,1.1v5c0,0.5,0.4,1,0.9,1.1L72,12l-3.7,35.7l-11.9,2.6v-2.6     c1-0.4,1.7-1.4,1.7-2.5c0-1.5-1.2-2.7-2.7-2.7s-2.7,1.2-2.7,2.7c0,1.2,0.7,2.1,1.7,2.5v3.1l-2.1,0.5c-1.3,0.3-2.2,1.4-2.2,2.7     l0,42c0,0.9,0.7,1.7,1.7,1.7h1c0.7,0,1.4-0.5,1.6-1.2l7.9-24.7h10.3l7.9,24.7c0.2,0.7,0.9,1.2,1.6,1.2h1c0.9,0,1.7-0.7,1.7-1.7     L84.7,3.6z"/><ellipse cx="36" cy="12.4" rx="9.4" ry="9.4" transform="matrix(0.219 -0.9757 0.9757 0.219 15.9964 44.7587)"/></g></g></svg>