<?xml version="1.0" ?><svg id="Layer_1" style="enable-background:new 0 0 50 50;" version="1.1" viewBox="0 0 50 50" xml:space="preserve" xmlns="http://www.w3.org/2000/svg" xmlns:xlink="http://www.w3.org/1999/xlink"><g><path d="M48.5,28.3L48.5,28.3l-0.5,1.1l-1.4,0.1c0,0-1.1-0.7-1.1-0.8c-0.1-0.1,1.5-1.7,1.8-1.7c0.2,0,1.3,0.4,1.8,0.6c0,0,0,0,0,0   c0-0.1,0.1-0.3,0-0.4c-0.1-0.2-1.9-1.9-3.3-2.4c-1-0.4-5.2-2.5-7.8-2.5l-0.6,0c-2.2-1.2-7.8-2.9-8-3c-0.1,0,0.1-0.1,0.4-0.2   c-5.2-1.3-10.1-0.3-14.9,0.4c0,0-11.4,1.8-11.7,1.8c-0.3,0-0.6-0.1-0.9,0c-0.2,0.1-0.2,0.3-0.1,0.5c0,0,0,0,0,0   c0.2,0,0.5,0.1,0.6,0.2c0.3,0.3,1.2,1.5,1.2,1.5s-1.6,0-1.9-0.2c-0.3,0.1-0.5,0.2-0.5,0.4c0,0.3,0.1,1.2,0.4,1.5   c-0.4,0-1,0.2-0.9,0.3c0.2,0.2,1,0.6,0.8,0.6c-0.2,0-0.8,0.4-0.3,1.1c0.4,0.5,1.7,1.4,2.7,1.8C4,28.6,3.8,28,3.8,27.4   c0-2.5,2.1-4.6,4.6-4.6c2.5,0,4.6,2.1,4.6,4.6c0,0.8-0.2,1.6-0.6,2.3l0.2,0.2l0,0c2.4,0-8.2-0.1,21,0.2c-0.3-0.6-0.5-1.4-0.5-2.1   c0-2.5,2.1-4.6,4.6-4.6c3.5,0,5.7,3.8,4,6.9l0,0c0.1,0,7.1-0.3,7.2-0.4C49.1,29.7,48.8,28.4,48.5,28.3z M15.1,21.7   c-0.3,0-0.9-0.2-0.8-0.5c0.1-0.3,0.7-0.2,1-0.1C16.5,21.4,16.2,22,15.1,21.7z M32.7,23.1l0.2,0.5c0.4,2.8-0.2,5.7-0.3,5.8   c-0.1,0-11.9-0.5-12.4-0.8c-0.4-0.2-1.8-1.9-2.4-3.3c-0.8-2-0.9-2.4-0.7-2.7c0.2-0.2,1.1-0.6,1.9-1c-2.4-0.3-4.1-0.9-5-1.1   c0.1,0,2.1-1.2,7.5-1.4l-0.8,2.6c-0.2,0-0.4,0-0.6-0.1c-0.4,0.2-2.4,1-2.5,1.2c0,0.1,0.1,0.5,0.8,2.1c0.5,1.3,1.9,2.9,2.1,3   c0.3,0.1,6.2,0.5,11.7,0.7c0.5-2.3,0.2-5,0.2-5.2l-0.2-0.6c-0.2,0-0.5,0-0.7,0l0.3-0.3c0.3-0.1,0.7-0.3,0.8-0.3   c0.1,0-0.2-0.4-0.7-0.6c-0.5-0.2-1.7-0.4-2.3-0.3L29.3,22l0.2,0.8c0,0,0.4,0,0.8,0.1c-0.1,0-0.1,0.1-0.2,0.1   c-3.9-0.3-5.4-0.5-9.1-1l0.9-2.7c8.4-0.2,12.3,2.6,14.1,3.1C35.9,22.4,33.4,23.1,32.7,23.1z M46.4,25.5c0,0,0.4,0.6,0.2,0.6   c-0.6-0.1-2.4-1.2-3.5-1.7L46.4,25.5z"/><path d="M8.4,23.8c-2,0-3.6,1.6-3.6,3.6c0,2,1.6,3.6,3.6,3.6c2,0,3.6-1.6,3.6-3.6C12.1,25.4,10.4,23.8,8.4,23.8z M8.2,24.4l0.2,2.4   c-0.1,0-0.2,0-0.3,0.1l-1.2-2.1C7.3,24.6,7.7,24.5,8.2,24.4z M6.5,25.1l1.6,1.8C8,27,8,27.1,7.9,27.2l-2.2-1   C5.9,25.8,6.1,25.4,6.5,25.1z M5.5,27.4c0-0.2,0-0.5,0.1-0.7l2.4,0.5c0,0.1,0,0.2,0,0.3l-2.4,0.5C5.5,27.8,5.5,27.6,5.5,27.4z    M5.7,28.5l2.2-1c0,0.1,0.1,0.2,0.2,0.2l-1.6,1.8C6.2,29.3,5.9,29,5.7,28.5z M8.2,30.3c-0.5,0-0.9-0.2-1.3-0.4l1.2-2.1   c0.1,0.1,0.2,0.1,0.3,0.1L8.2,30.3z M11.2,26.2l-2.2,1c0-0.1-0.1-0.2-0.2-0.3l1.6-1.8C10.7,25.4,11,25.8,11.2,26.2z M8.7,24.4   c0.5,0,0.9,0.2,1.3,0.4l-1.2,2.1c-0.1-0.1-0.2-0.1-0.3-0.1L8.7,24.4z M8.7,30.3l-0.2-2.4c0.1,0,0.2,0,0.3-0.1l1.2,2.1   C9.6,30.1,9.2,30.3,8.7,30.3z M10.4,29.6l-1.6-1.8c0.1-0.1,0.2-0.2,0.2-0.3l2.2,1C11,28.9,10.7,29.3,10.4,29.6z M9,27.5   c0-0.1,0-0.2,0-0.3l2.4-0.5c0,0.2,0.1,0.5,0.1,0.7c0,0.2,0,0.5-0.1,0.7L9,27.5z"/><path d="M37.7,24.3c-2,0-3.6,1.6-3.6,3.6c0,2,1.6,3.6,3.6,3.6s3.6-1.6,3.6-3.6C41.3,25.9,39.7,24.3,37.7,24.3z M35.8,25.6l1.6,1.8   c-0.1,0.1-0.2,0.1-0.2,0.3l-2.2-1C35.1,26.3,35.4,25.9,35.8,25.6z M34.7,27.9c0-0.2,0-0.5,0.1-0.7l2.4,0.5c0,0.1,0,0.2,0,0.3   l-2.4,0.5C34.8,28.3,34.7,28.1,34.7,27.9z M35,29l2.2-1c0,0.1,0.1,0.2,0.2,0.2l-1.6,1.8C35.4,29.8,35.2,29.5,35,29z M37.5,30.8   c-0.5,0-0.9-0.2-1.3-0.4l1.2-2.1c0.1,0.1,0.2,0.1,0.3,0.1L37.5,30.8z M37.4,27.4l-1.2-2.1c0.4-0.2,0.8-0.4,1.3-0.4l0.2,2.4   C37.6,27.3,37.5,27.4,37.4,27.4z M40.4,26.7l-2.2,1c0-0.1-0.1-0.2-0.2-0.3l1.6-1.8C40,25.9,40.3,26.3,40.4,26.7z M37.9,24.9   c0.5,0,0.9,0.2,1.3,0.4L38,27.4c-0.1-0.1-0.2-0.1-0.3-0.1L37.9,24.9z M37.9,30.8l-0.2-2.4c0.1,0,0.2,0,0.3-0.1l1.2,2.1   C38.9,30.6,38.4,30.8,37.9,30.8z M39.6,30.1L38,28.3c0.1-0.1,0.2-0.2,0.2-0.3l2.2,1C40.3,29.4,40,29.8,39.6,30.1z M38.2,28   c0-0.1,0-0.2,0-0.3l2.4-0.5c0.1,0.2,0.1,0.5,0.1,0.7c0,0.2,0,0.5-0.1,0.7L38.2,28z"/></g></svg>